<?xml version="1.0" encoding="iso-8859-1"?>
<!-- Generator: Adobe Illustrator 19.0.0, SVG Export Plug-In . SVG Version: 6.00 Build 0)  -->
<svg version="1.1" id="Capa_1" xmlns="http://www.w3.org/2000/svg" xmlns:xlink="http://www.w3.org/1999/xlink" x="0px" y="0px"
	 viewBox="0 0 512 512" style="enable-background:new 0 0 512 512;" xml:space="preserve">
<g>
	<g>
		<path d="M469.342,240.674c-5.506-22.816-15.382-44.466-29.248-64.115c7.573-11.934,11.406-24.523,11.406-37.518
			c0-30.497-21.165-58.673-59.596-79.338C355.438,40.095,307.173,29.296,256,29.296c-51.173,0-99.438,10.799-135.904,30.407
			C81.665,80.368,60.5,108.544,60.5,139.042c0,12.995,3.833,25.584,11.406,37.518c-13.866,19.65-23.742,41.299-29.248,64.115
			C18.503,244.652,0,265.225,0,289.795c0,25.81,20.272,47.099,46.133,49.576c10.156,31.985,29.111,61.27,55.752,85.413
			c41.215,37.35,95.947,57.92,154.114,57.92s112.899-20.57,154.114-57.92c26.641-24.143,45.597-53.428,55.752-85.413
			C491.728,336.895,512,315.606,512,289.795C512,265.225,493.497,244.651,469.342,240.674z M20,289.795
			c0-12.19,7.747-22.737,18.779-27.344c-0.819,7.041-1.233,14.163-1.233,21.344c0,11.546,1.072,22.94,3.172,34.089
			C28.656,313.763,20,302.728,20,289.795z M129.567,77.319C163.174,59.248,208.075,49.296,256,49.296s92.826,9.952,126.433,28.022
			c31.642,17.014,49.067,38.934,49.067,61.723c0,6.939-1.618,13.812-4.825,20.54c-5.135-5.826-10.659-11.426-16.56-16.774
			c-40.388-36.601-93.758-57.087-150.619-57.894c-0.163-0.002-0.326-0.005-0.489-0.007c-0.169-0.002-0.339-0.004-0.508-0.006
			c-0.347-0.004-0.694-0.006-1.041-0.009c-0.083,0-0.166-0.001-0.248-0.001c-0.402-0.002-0.805-0.003-1.208-0.003
			s-0.805,0.001-1.208,0.003c-0.083,0-0.166,0.001-0.249,0.001c-0.347,0.002-0.694,0.005-1.041,0.009
			c-0.169,0.002-0.339,0.004-0.508,0.006c-0.163,0.002-0.326,0.004-0.489,0.007c-56.862,0.807-110.231,21.293-150.62,57.894
			c-5.901,5.348-11.425,10.948-16.56,16.774c-3.209-6.727-4.827-13.601-4.827-20.539C80.5,116.253,97.926,94.333,129.567,77.319z
			 M256,462.704c-109.428,0-198.454-80.258-198.454-178.908c0-72.391,47.939-134.877,116.7-163.014
			c9.47-3.863,19.285-7.058,29.359-9.546c-14.471,14.961-23.388,35.326-23.388,57.735c0,5.523,4.478,10,10,10
			c5.522,0,10-4.477,10-10c0-34.79,28.304-63.093,63.094-63.093c26.728,0,48.475,21.746,48.475,48.475
			c0,20.28-16.5,36.78-36.78,36.78c-15.121,0-27.424-12.302-27.424-27.424c0-2.876,0.596-5.647,1.771-8.232
			c2.285-5.028,0.063-10.956-4.966-13.242c-5.023-2.285-10.956-0.063-13.241,4.965c-2.365,5.204-3.564,10.758-3.564,16.509
			c0,26.149,21.274,47.424,47.424,47.424c31.309,0,56.78-25.471,56.78-56.78c0-15.062-4.888-29.003-13.161-40.321
			c6.51,1.953,12.896,4.208,19.132,6.751c68.761,28.137,116.699,90.623,116.699,163.014
			C454.454,382.446,365.428,462.704,256,462.704z M471.282,317.884c2.101-11.148,3.172-22.542,3.172-34.089
			c0-7.181-0.415-14.303-1.233-21.344C484.253,267.059,492,277.605,492,289.795C492,302.728,483.344,313.763,471.282,317.884z"/>
	</g>
</g>
<g>
	<g>
		<path d="M277.32,131.81c-0.13-0.63-0.319-1.26-0.569-1.87c-0.25-0.6-0.56-1.18-0.92-1.72c-0.36-0.55-0.78-1.06-1.24-1.52
			c-2.32-2.33-5.78-3.39-9.021-2.74c-0.64,0.13-1.27,0.32-1.88,0.57c-0.6,0.25-1.18,0.56-1.72,0.92c-0.55,0.37-1.06,0.79-1.52,1.25
			c-0.46,0.46-0.881,0.97-1.25,1.52c-0.36,0.54-0.67,1.12-0.92,1.72c-0.25,0.61-0.44,1.24-0.57,1.87
			c-0.13,0.65-0.19,1.309-0.19,1.96c0,0.65,0.061,1.31,0.19,1.95c0.13,0.64,0.32,1.27,0.57,1.87c0.25,0.61,0.56,1.19,0.92,1.73
			c0.369,0.55,0.79,1.06,1.25,1.52c0.46,0.46,0.97,0.88,1.52,1.24c0.54,0.36,1.12,0.67,1.72,0.92c0.61,0.25,1.24,0.44,1.88,0.57
			c0.641,0.13,1.301,0.2,1.95,0.2c0.65,0,1.311-0.07,1.95-0.2c0.64-0.13,1.271-0.32,1.87-0.57c0.61-0.25,1.19-0.56,1.729-0.92
			c0.551-0.36,1.061-0.78,1.521-1.24c1.86-1.86,2.93-4.44,2.93-7.07C277.52,133.12,277.451,132.46,277.32,131.81z"/>
	</g>
</g>
<g>
	<g>
		<path d="M371.132,297.72c-23.037,0-41.778,18.742-41.778,41.779s18.741,41.778,41.778,41.778
			c23.037,0,41.778-18.742,41.778-41.778C412.91,316.461,394.169,297.72,371.132,297.72z M371.132,361.277
			c-12.009,0-21.778-9.77-21.778-21.778c0-12.009,9.77-21.779,21.778-21.779c12.009,0,21.778,9.77,21.778,21.779
			C392.91,351.507,383.141,361.277,371.132,361.277z"/>
	</g>
</g>
<g>
	<g>
		<path d="M140.868,297.72c-23.037,0-41.778,18.742-41.778,41.779s18.741,41.778,41.778,41.778
			c23.037,0,41.778-18.742,41.778-41.778C182.646,316.461,163.905,297.72,140.868,297.72z M140.868,361.277
			c-12.009,0-21.778-9.77-21.778-21.778c0-12.009,9.77-21.779,21.778-21.779c12.009,0,21.778,9.77,21.778,21.779
			C162.646,351.507,152.877,361.277,140.868,361.277z"/>
	</g>
</g>
<g>
	<g>
		<path d="M382.151,258.311h-8.491c-3.204-19.304-20.019-34.069-40.218-34.069c-22.48,0-40.768,18.288-40.768,40.767
			c0,5.523,4.478,10,10,10c5.522,0,10-4.477,10-10c0-11.451,9.316-20.767,20.768-20.767c11.452,0,20.768,9.316,20.768,20.767v3.302
			c0,5.523,4.478,10,10,10h17.941c5.522,0,10-4.477,10-10S387.673,258.311,382.151,258.311z"/>
	</g>
</g>
<g>
	<g>
		<path d="M178.557,224.242c-20.199,0-37.014,14.765-40.218,34.069h-8.491c-5.522,0-10,4.477-10,10s4.478,10,10,10h17.941
			c5.523,0,10-4.477,10-10v-3.302c0-11.451,9.316-20.767,20.768-20.767s20.768,9.316,20.768,20.767c0,5.523,4.478,10,10,10
			c5.523,0,10-4.477,10-10C219.325,242.53,201.037,224.242,178.557,224.242z"/>
	</g>
</g>
<g>
	<g>
		<path d="M308.31,351.683c-4.744-2.832-10.882-1.282-13.713,3.46c-6.122,10.253-21.633,17.142-38.598,17.142
			c-16.965,0-32.476-6.889-38.598-17.142c-2.831-4.742-8.97-6.291-13.713-3.46c-4.741,2.831-6.29,8.971-3.459,13.712
			c9.753,16.334,31.643,26.889,55.77,26.889s46.017-10.555,55.77-26.889C314.601,360.654,313.052,354.514,308.31,351.683z"/>
	</g>
</g>
<g>
</g>
<g>
</g>
<g>
</g>
<g>
</g>
<g>
</g>
<g>
</g>
<g>
</g>
<g>
</g>
<g>
</g>
<g>
</g>
<g>
</g>
<g>
</g>
<g>
</g>
<g>
</g>
<g>
</g>
</svg>
