<svg height="512pt" viewBox="0 0 512 512" width="512pt" xmlns="http://www.w3.org/2000/svg"><g fill-rule="evenodd"><path d="m163.546875 416.136719c-4.78125-2.765625-10.898437-1.125-13.660156 3.660156l-7.355469 12.738281c-2.761719 4.78125-1.125 10.898438 3.660156 13.660156 1.574219.90625 3.292969 1.339844 4.992188 1.339844 3.453125 0 6.816406-1.792968 8.667968-5l7.355469-12.738281c2.761719-4.785156 1.121094-10.898437-3.660156-13.660156zm0 0"/><path d="m69.464844 159.851562 12.738281 7.355469c1.578125.90625 3.296875 1.339844 4.992187 1.339844 3.457032 0 6.816407-1.792969 8.667969-5 2.761719-4.785156 1.125-10.898437-3.660156-13.660156l-12.738281-7.355469c-4.785156-2.761719-10.898438-1.125-13.660156 3.660156-2.761719 4.78125-1.121094 10.898438 3.660156 13.660156zm0 0"/><path d="m71.117188 256c0-5.523438-4.476563-10-10-10h-14.734376c-5.523437 0-10 4.476562-10 10s4.476563 10 10 10h14.734376c5.523437 0 10-4.476562 10-10zm0 0"/><path d="m348.453125 95.867188c1.574219.90625 3.292969 1.339843 4.992187 1.339843 3.457032 0 6.816407-1.792969 8.667969-5.003906l7.355469-12.738281c2.761719-4.78125 1.121094-10.898438-3.660156-13.660156-4.785156-2.761719-10.902344-1.121094-13.660156 3.660156l-7.355469 12.742187c-2.761719 4.78125-1.121094 10.898438 3.660156 13.660157zm0 0"/><path d="m149.886719 92.203125c1.851562 3.210937 5.210937 5.003906 8.667969 5.003906 1.695312 0 3.417968-.433593 4.992187-1.34375 4.78125-2.757812 6.421875-8.875 3.660156-13.660156l-7.355469-12.738281c-2.761718-4.78125-8.878906-6.421875-13.660156-3.660156-4.785156 2.761718-6.421875 8.878906-3.660156 13.660156zm0 0"/><path d="m256 71.117188c5.523438 0 10-4.476563 10-10v-14.734376c0-5.523437-4.476562-10-10-10s-10 4.476563-10 10v14.734376c0 5.523437 4.476562 10 10 10zm0 0"/><path d="m82.207031 344.792969-12.742187 7.355469c-4.78125 2.761718-6.421875 8.875-3.660156 13.660156 1.851562 3.207031 5.214843 5 8.671874 5 1.695313 0 3.414063-.429688 4.988282-1.339844l12.738281-7.355469c4.785156-2.761719 6.425781-8.875 3.664063-13.660156-2.761719-4.78125-8.878907-6.421875-13.660157-3.660156zm0 0"/><path d="m465.617188 246h-14.734376c-5.523437 0-10 4.476562-10 10s4.476563 10 10 10h14.734376c5.523437 0 10-4.476562 10-10s-4.476563-10-10-10zm0 0"/><path d="m424.804688 168.546875c1.695312 0 3.417968-.433594 4.992187-1.339844l12.738281-7.355469c4.78125-2.761718 6.421875-8.878906 3.660156-13.660156-2.761718-4.78125-8.878906-6.421875-13.660156-3.660156l-12.738281 7.355469c-4.785156 2.761719-6.425781 8.878906-3.660156 13.660156 1.851562 3.207031 5.210937 5 8.667969 5zm0 0"/><path d="m442.535156 352.148438-12.738281-7.355469c-4.785156-2.761719-10.902344-1.121094-13.660156 3.660156-2.765625 4.785156-1.125 10.898437 3.660156 13.660156l12.738281 7.355469c1.574219.910156 3.292969 1.339844 4.988282 1.339844 3.457031 0 6.820312-1.792969 8.671874-5 2.761719-4.785156 1.121094-10.898438-3.660156-13.660156zm0 0"/><path d="m362.113281 419.796875c-2.757812-4.785156-8.875-6.421875-13.660156-3.664063-4.78125 2.761719-6.421875 8.878907-3.660156 13.660157l7.355469 12.738281c1.851562 3.210938 5.214843 5.003906 8.667968 5.003906 1.699219 0 3.417969-.433594 4.992188-1.339844 4.78125-2.761718 6.421875-8.878906 3.660156-13.660156zm0 0"/><path d="m256 440.882812c-5.523438 0-10 4.476563-10 10v14.734376c0 5.523437 4.476562 10 10 10s10-4.476563 10-10v-14.734376c0-5.523437-4.476562-10-10-10zm0 0"/><path d="m256 0c-141.160156 0-256 114.839844-256 256s114.839844 256 256 256 256-114.839844 256-256-114.839844-256-256-256zm0 492c-130.132812 0-236-105.867188-236-236s105.867188-236 236-236 236 105.867188 236 236-105.867188 236-236 236zm0 0"/><path d="m377.214844 314.4375-73.703125-42.554688c1.671875-4.996093 2.59375-10.332031 2.59375-15.882812 0-24.203125-17.253907-44.453125-40.105469-49.101562v-110.078126c0-5.523437-4.476562-10-10-10s-10 4.476563-10 10v110.085938c-5.332031 1.082031-10.46875 3.027344-15.1875 5.777344-4.773438 2.777344-6.386719 8.902344-3.609375 13.671875 2.777344 4.773437 8.902344 6.386719 13.675781 3.609375 4.566406-2.664063 9.796875-4.070313 15.121094-4.070313 16.601562 0 30.105469 13.503907 30.105469 30.105469s-13.503907 30.105469-30.105469 30.105469c-5.324219 0-10.554688-1.40625-15.125-4.070313-4.769531-2.777344-10.894531-1.164062-13.671875 3.609375-2.78125 4.769531-1.167969 10.894531 3.605469 13.671875 7.625 4.441406 16.332031 6.789063 25.191406 6.789063 14.90625 0 28.304688-6.550781 37.488281-16.914063l73.726563 42.566406c1.574218.90625 3.292968 1.339844 4.988281 1.339844 3.457031 0 6.820313-1.792968 8.671875-5 2.761719-4.785156 1.121094-10.902344-3.660156-13.660156zm0 0"/><path d="m215.894531 246c-5.507812 0-10 4.492188-10 10s4.492188 10 10 10c5.507813 0 10-4.492188 10-10s-4.492187-10-10-10zm0 0"/></g></svg>